<?xml version="1.0" standalone="no"?>
<!DOCTYPE svg PUBLIC "-//W3C//DTD SVG 20010904//EN"
 "http://www.w3.org/TR/2001/REC-SVG-20010904/DTD/svg10.dtd">
<svg version="1.0" xmlns="http://www.w3.org/2000/svg"
 width="256.000000pt" height="256.000000pt" viewBox="0 0 256.000000 256.000000"
 preserveAspectRatio="xMidYMid meet">

<g transform="translate(0.000000,256.000000) scale(0.100000,-0.100000)"
fill="#000000" stroke="none">
<path d="M424 2390 c0 -91 2 -128 3 -82 2 45 2 119 0 165 -1 45 -3 8 -3 -83z"/>
<path d="M484 2415 c0 -77 2 -107 3 -67 2 40 2 103 0 140 -2 37 -3 4 -3 -73z"/>
<path d="M1434 2511 c0 -14 4 -17 12 -10 8 7 14 6 17 -3 4 -10 6 -10 6 0 1 6
11 12 24 13 21 1 21 1 -3 9 -42 13 -56 11 -56 -9z"/>
<path d="M1180 2464 c-209 -26 -386 -88 -545 -188 -77 -49 -82 -51 -59 -25 22
25 47 99 35 99 -11 0 -144 -94 -160 -114 -9 -11 -10 -16 -2 -16 7 0 9 -5 6
-10 -8 -13 20 -41 31 -32 10 7 -35 -42 -110 -123 -37 -40 -44 -44 -34 -22 9
21 9 33 1 46 -7 11 -8 23 -2 34 7 12 6 15 -3 12 -27 -11 -204 -275 -185 -275
3 0 16 18 28 40 22 39 44 56 32 24 -4 -10 1 -17 15 -21 21 -5 20 -7 -13 -73
-19 -38 -40 -72 -46 -76 -9 -5 -10 -2 -6 9 9 24 2 21 -34 -14 -18 -17 -30 -25
-26 -18 3 8 8 23 12 34 18 56 -20 -24 -45 -94 -99 -271 -70 -663 70 -941 50
-100 148 -238 227 -322 43 -46 70 -77 61 -69 -17 13 -18 4 -18 -153 l0 -166
620 0 620 0 0 29 c0 26 6 31 83 61 142 56 251 121 365 219 61 52 62 54 42 68
-12 8 -24 12 -27 9 -3 -3 2 -8 11 -12 9 -3 16 -10 16 -16 0 -5 -5 -6 -12 -2
-6 4 -8 3 -5 -3 4 -6 0 -16 -8 -23 -13 -10 -19 -10 -34 4 -15 14 -20 14 -29 3
-7 -8 -8 -18 -4 -22 4 -5 2 -5 -4 -2 -6 3 -26 -4 -45 -17 -67 -45 -89 -58 -89
-54 0 3 26 22 57 43 81 54 230 201 295 292 105 146 157 266 198 461 31 145 25
380 -13 523 -51 195 -147 365 -291 516 -174 183 -364 291 -617 351 -83 20
-288 35 -359 26z m-25 -34 c-11 -5 -33 -8 -50 -8 -29 0 -29 0 -5 8 14 4 36 8
50 8 23 1 23 0 5 -8z m464 -31 c201 -55 426 -201 563 -363 32 -38 58 -72 58
-75 0 -4 -20 -5 -45 -3 -40 4 -44 2 -38 -14 4 -11 3 -15 -4 -11 -6 4 -16 0
-23 -8 -7 -8 -17 -15 -22 -15 -6 0 0 9 13 19 31 25 17 39 -17 17 -26 -18 -26
-17 -19 6 4 12 10 29 12 36 3 6 -1 12 -8 12 -7 0 -9 -3 -6 -6 3 -4 2 -15 -4
-25 -8 -15 -21 -19 -71 -19 -48 0 -59 -3 -50 -12 7 -7 12 -15 12 -18 0 -3 -24
16 -52 43 -66 60 -204 147 -236 147 -18 0 -22 4 -17 19 6 21 -13 40 -24 23 -4
-8 -34 -3 -91 15 -47 14 -79 28 -72 30 6 3 12 15 12 28 0 37 10 54 28 48 14
-4 14 -3 3 5 -8 6 -20 8 -27 5 -6 -2 -15 1 -19 7 -3 6 -1 9 6 8 13 -3 42 99
33 114 -8 13 26 9 105 -13z m-707 -51 c-2 -24 -9 -49 -16 -57 -9 -12 -8 -13 7
-8 9 3 17 2 17 -3 0 -6 -4 -10 -9 -10 -5 0 -3 -17 5 -37 21 -60 18 -68 -35
-92 -35 -15 -48 -27 -44 -37 4 -10 0 -12 -12 -7 -13 4 -25 -1 -39 -18 -19 -22
-84 -76 -111 -91 -7 -4 -9 8 -7 31 3 32 -1 41 -25 59 -15 12 -34 27 -40 32 -9
7 -17 8 -25 1 -7 -6 -26 -22 -43 -36 l-30 -25 24 -20 c13 -11 20 -20 15 -20
-4 0 -15 7 -25 16 -16 14 -19 13 -42 -12 -24 -26 -25 -28 -9 -50 9 -13 21 -24
26 -24 5 0 -1 11 -13 24 -28 30 -10 46 22 19 l22 -18 -19 23 c-24 28 -15 39
15 19 11 -9 27 -13 35 -10 8 3 16 -7 21 -28 8 -29 5 -37 -24 -68 -19 -21 -31
-43 -28 -52 3 -9 -10 -36 -29 -61 -34 -44 -37 -45 -73 -39 -21 4 -51 16 -66
25 -32 21 -36 32 -6 16 26 -14 35 -7 14 10 -8 7 -15 17 -15 23 0 5 9 2 20 -8
18 -16 20 -16 20 -2 0 10 6 17 13 17 6 1 0 8 -15 16 -39 20 -35 38 3 18 25
-12 34 -13 43 -3 8 9 7 11 -5 7 -23 -9 -54 21 -72 69 l-16 42 38 48 c51 65
132 138 140 127 3 -5 18 -15 33 -21 24 -11 29 -10 38 7 5 10 10 35 10 54 0 31
6 40 43 67 48 35 171 96 231 115 23 7 41 13 41 13 0 1 -1 -18 -3 -41z m495 6
c-3 -3 -12 -4 -19 -1 -8 3 -5 6 6 6 11 1 17 -2 13 -5z m-283 -20 c3 -8 2 -12
-4 -9 -6 3 -10 10 -10 16 0 14 7 11 14 -7z m334 -39 c-3 -3 -9 2 -12 12 -6 14
-5 15 5 6 7 -7 10 -15 7 -18z m-497 -2 c13 -16 12 -17 -3 -4 -10 7 -18 15 -18
17 0 8 8 3 21 -13z m114 -3 c7 0 16 5 18 10 3 6 4 5 3 -2 -2 -7 -11 -13 -21
-13 -10 0 -19 6 -21 13 -1 7 0 8 3 2 2 -5 11 -10 18 -10z m155 -138 c-27 -5
-42 -39 -29 -65 24 -45 41 -57 85 -57 34 0 46 5 54 21 7 11 14 19 17 16 2 -3
-2 -14 -9 -26 -10 -17 -23 -21 -65 -21 -51 0 -53 1 -78 44 -23 39 -25 48 -14
68 15 28 30 39 44 30 6 -4 4 -8 -5 -10z m353 -8 c26 -9 47 -19 47 -24 0 -9 76
-41 89 -37 13 3 155 -91 186 -123 l26 -27 -46 7 -46 7 58 -60 58 -61 -65 59
c-118 106 -208 160 -342 204 -58 19 -68 26 -68 46 0 13 -6 26 -12 29 -24 11
67 -5 115 -20z m-203 -3 c13 -26 13 -41 -2 -41 -6 0 -20 -8 -31 -17 -19 -18
-20 -17 -6 7 7 14 12 29 11 34 -2 5 3 13 10 18 8 5 -10 7 -45 6 -31 0 -60 2
-64 5 -3 4 21 7 55 7 50 0 63 -3 72 -19z m-480 -21 c-24 -15 -37 -11 -16 5 11
8 22 12 25 9 3 -3 -1 -9 -9 -14z m395 -21 c-4 -5 -1 -9 4 -9 7 0 7 -7 -1 -20
-15 -24 -33 -27 -20 -4 5 9 7 26 4 37 -3 14 -1 18 7 13 6 -4 9 -12 6 -17z
m-25 -21 c0 -16 -25 -8 -38 12 -11 18 -10 19 13 8 14 -6 25 -15 25 -20z m301
-7 c118 -40 243 -116 218 -132 -8 -5 -20 -2 -29 6 -22 20 -168 91 -218 106
-48 14 -77 39 -45 39 11 0 44 -8 74 -19z m65 -71 c45 -20 84 -42 88 -49 10
-16 5 -14 -75 24 -40 19 -88 38 -106 41 -18 3 -38 13 -45 21 -11 14 -8 15 22
8 19 -4 71 -24 116 -45z m-861 30 c-3 -5 -1 -18 5 -29 9 -17 1 -27 -65 -81
-45 -36 -99 -94 -136 -145 -59 -82 -77 -101 -65 -70 3 8 -2 21 -10 29 -13 14
-13 19 0 43 22 42 101 104 114 91 21 -21 55 21 49 59 -5 28 -1 36 31 61 33 26
72 51 80 52 2 0 0 -4 -3 -10z m602 -102 l0 -103 -6 90 c-5 81 -4 115 4 115 1
0 2 -46 2 -102z m-170 0 c-2 -18 -4 -4 -4 32 0 36 2 50 4 33 2 -18 2 -48 0
-65z m411 47 c24 -10 41 -19 39 -21 -5 -5 -118 36 -131 47 -12 11 35 -3 92
-26z m-351 -122 c-2 -27 -3 -5 -3 47 0 52 1 74 3 48 2 -27 2 -69 0 -95z m50
100 c-3 -10 -5 -4 -5 12 0 17 2 24 5 18 2 -7 2 -21 0 -30z m-611 -94 c-53 -50
-103 -109 -133 -157 -32 -52 -49 -71 -51 -59 -8 41 122 211 217 283 78 60 58
18 -33 -67z m429 41 c10 -11 16 -20 13 -20 -3 0 -13 9 -23 20 -10 11 -16 20
-13 20 3 0 13 -9 23 -20z m718 -29 c-2 -3 -16 8 -31 24 l-27 28 31 -24 c17
-13 30 -26 27 -28z m302 29 c-23 -25 -14 -36 17 -19 22 11 22 11 8 -6 -14 -16
-13 -17 8 -11 17 6 21 4 16 -9 -4 -9 -9 -14 -12 -11 -2 3 -14 0 -26 -6 -19
-10 -20 -10 -7 5 12 15 11 17 -3 17 -25 0 -32 31 -11 46 27 20 31 17 10 -6z
m-1535 0 c0 -5 -4 -10 -10 -10 -5 0 -10 5 -10 10 0 6 5 10 10 10 6 0 10 -4 10
-10z m170 6 c0 -2 -32 -35 -71 -73 -45 -43 -89 -99 -121 -153 -60 -102 -58
-99 -58 -69 0 13 19 53 42 88 58 89 208 238 208 207z m1256 -53 c-6 -7 -45 37
-46 52 0 5 12 -3 26 -18 14 -16 23 -31 20 -34z m-1473 21 c-27 -20 -39 -17
-18 6 10 11 22 17 27 14 5 -3 1 -12 -9 -20z m-271 -105 c-10 -16 -6 -25 31
-62 24 -24 49 -58 55 -76 10 -28 9 -34 -9 -49 -24 -21 -45 -92 -30 -101 6 -4
7 -20 1 -46 -5 -22 -9 -51 -9 -65 1 -14 7 4 15 39 8 36 18 67 23 70 10 7 25
71 16 71 -3 0 -12 -15 -20 -32 -12 -27 -14 -29 -15 -11 0 12 14 37 30 55 27
29 30 30 30 11 0 -11 6 -26 14 -32 11 -9 11 -19 0 -63 -8 -29 -14 -59 -13 -68
0 -8 7 6 14 33 21 75 25 83 34 69 4 -8 2 -41 -6 -74 -8 -33 -12 -68 -10 -77 2
-9 7 7 12 34 11 68 24 100 35 89 6 -6 6 -24 -1 -47 -6 -21 -8 -48 -6 -60 3
-18 5 -16 6 6 0 16 7 43 15 60 8 18 17 39 19 47 3 8 6 3 6 -12 1 -34 33 -56
85 -60 28 -2 40 -8 46 -23 7 -17 9 -17 9 -2 1 10 9 17 22 17 22 0 23 18 4 62
-5 13 -2 15 17 10 46 -12 58 -40 55 -127 -2 -76 -3 -80 -25 -83 -15 -2 -34 6
-50 20 l-26 23 16 -26 c16 -26 16 -26 -10 -21 -15 2 -36 12 -47 21 -12 9 -15
10 -7 1 19 -22 15 -25 -33 -22 -41 4 -45 2 -46 -19 l-2 -24 -4 23 c-6 32 -44
26 -55 -8 -6 -19 -7 -16 -4 12 l5 38 -22 -21 c-12 -11 -23 -15 -25 -9 -2 5
-10 10 -18 10 -8 0 -15 8 -15 18 -1 15 -2 15 -6 0 -2 -9 -14 -18 -26 -20 -26
-4 -35 -49 -17 -84 19 -35 8 -49 -20 -24 -23 20 -24 20 -2 10 25 -12 29 -5 7
16 -8 9 -15 29 -15 45 0 24 -4 29 -23 29 -45 0 -61 23 -58 79 1 28 -1 51 -6
51 -4 0 -18 3 -30 6 -14 4 -23 2 -23 -5 0 -6 9 -11 19 -11 22 0 37 -17 26 -28
-4 -4 -10 -1 -13 7 -4 11 -6 11 -13 0 -6 -10 -9 -11 -9 -1 0 6 -4 12 -10 12
-21 0 -9 -30 15 -36 14 -3 25 -10 25 -15 0 -5 -11 -9 -25 -9 -34 0 -32 -20 3
-21 26 -2 26 -2 2 -6 -14 -3 -29 -9 -35 -14 -5 -5 -22 -9 -38 -9 l-30 0 6 103
c6 115 40 269 45 207 2 -21 13 -44 27 -58 19 -17 23 -27 16 -45 -8 -20 -6 -22
25 -22 19 0 34 3 34 8 0 4 -9 7 -19 7 -11 0 -23 5 -26 10 -3 6 4 10 17 10 37
0 51 20 31 42 -16 18 -16 18 3 12 14 -5 10 2 -13 27 -18 19 -33 39 -33 44 -1
17 -40 61 -40 46 0 -8 -2 -12 -5 -9 -8 8 31 112 66 179 l32 60 20 -47 c16 -37
18 -50 9 -65z m502 99 c11 -11 3 -25 -46 -78 -58 -63 -119 -160 -133 -210 -3
-14 9 6 29 43 39 77 92 147 145 193 31 28 37 30 50 16 13 -13 12 -17 -11 -33
-31 -23 -125 -146 -158 -206 -13 -24 -28 -43 -34 -44 -30 -3 -62 4 -75 16 -12
12 -12 20 5 57 26 59 123 187 170 226 44 37 41 36 58 20z m1038 -106 c44 -52
108 -159 108 -178 0 -5 -15 18 -33 51 -45 83 -58 101 -129 174 -35 36 -47 52
-28 37 19 -15 56 -53 82 -84z m28 63 c19 -19 32 -35 29 -35 -3 0 -20 16 -39
35 -19 19 -32 35 -29 35 3 0 20 -16 39 -35z m30 10 c13 -14 21 -25 18 -25 -2
0 -15 11 -28 25 -13 14 -21 25 -18 25 2 0 15 -11 28 -25z m-101 -101 c43 -49
110 -154 98 -154 -3 0 -20 26 -37 58 -18 31 -69 93 -114 137 -44 44 -62 65
-39 47 24 -18 65 -58 92 -88z m387 79 c-10 -10 -19 5 -10 18 6 11 8 11 12 0 2
-7 1 -15 -2 -18z m-723 -3 c3 -11 1 -18 -4 -14 -5 3 -9 12 -9 20 0 20 7 17 13
-6z m230 -57 c15 -20 27 -47 27 -60 0 -20 5 -23 35 -23 l35 0 0 -57 c0 -39 5
-63 18 -77 13 -16 13 -18 1 -8 -14 11 -17 3 -23 -75 -4 -55 -3 -90 4 -97 13
-13 13 -29 0 -21 -5 3 -10 -1 -10 -9 0 -9 5 -16 11 -16 6 0 7 -5 2 -12 -4 -7
-6 -21 -5 -30 2 -10 -2 -18 -7 -18 -11 0 -12 17 -13 187 -1 40 -5 70 -9 67 -5
-3 -9 25 -9 62 0 56 -2 65 -14 55 -9 -8 -45 -11 -97 -10 -57 2 -84 -1 -87 -9
-2 -8 -32 -11 -95 -10 l-92 2 83 3 c45 2 82 8 82 14 0 5 -11 7 -24 3 -14 -3
-32 -2 -42 4 -11 6 12 10 77 11 52 1 120 4 153 7 43 4 61 3 67 -7 7 -11 9 -10
9 4 0 15 -11 17 -84 17 -47 0 -87 4 -90 9 -3 5 0 9 7 8 6 0 33 1 60 1 43 2 47
4 47 26 0 24 -30 67 -80 114 l-25 24 30 -22 c17 -11 42 -37 58 -57z m527 57
c-14 -11 -29 -20 -35 -19 -5 0 -2 4 8 10 9 6 15 14 12 20 -4 5 4 9 17 9 l23 0
-25 -20z m-1050 7 c0 -2 -15 -16 -32 -33 l-33 -29 29 33 c28 30 36 37 36 29z
m276 -29 l29 -33 -32 29 c-18 17 -33 31 -33 33 0 8 8 1 36 -29z m554 -18 c30
-43 18 -37 -16 7 -15 20 -23 33 -16 29 6 -3 21 -20 32 -36z m-1138 18 c-7 -7
-12 -25 -12 -41 0 -38 -16 -66 -46 -77 -23 -9 -24 -12 -24 -117 -1 -99 -2
-106 -16 -88 -8 11 -13 28 -11 37 3 9 0 23 -7 31 -14 18 -59 30 -50 14 5 -9 4
-9 -5 -1 -16 15 -1 53 54 129 41 57 107 125 122 125 4 0 2 -5 -5 -12z m1141
-90 c17 -32 17 -32 0 -8 -10 13 -33 45 -51 70 l-33 45 33 -37 c18 -20 41 -51
51 -70z m-63 42 c30 -43 18 -37 -16 7 -15 20 -23 33 -16 29 6 -3 21 -20 32
-36z m-260 -50 c0 -8 -7 -2 -16 15 -8 16 -21 37 -27 46 -7 8 0 2 16 -15 15
-17 27 -37 27 -46z m-278 -5 c14 -21 10 -18 -14 9 -21 23 -39 36 -46 32 -8 -5
-10 -2 -6 9 6 14 9 14 26 -2 11 -10 29 -31 40 -48z m48 12 c0 -12 0 -11 -24
28 l-17 30 20 -24 c12 -13 21 -28 21 -34z m611 -22 l10 -20 -16 20 c-9 11 -21
29 -26 40 l-10 20 16 -20 c9 -11 21 -29 26 -40z m-851 41 c0 -2 -8 -10 -17
-17 -16 -13 -17 -12 -4 4 13 16 21 21 21 13z m371 -13 c13 -16 12 -17 -3 -4
-17 13 -22 21 -14 21 2 0 10 -8 17 -17z m549 -3 c6 -11 8 -20 6 -20 -3 0 -10
9 -16 20 -6 11 -8 20 -6 20 3 0 10 -9 16 -20z m-1203 -22 c-3 -7 -5 -2 -5 12
0 14 2 19 5 13 2 -7 2 -19 0 -25z m168 -4 c21 -21 22 -24 6 -24 -11 0 -21 6
-24 14 -4 10 -15 13 -31 10 -18 -3 -26 0 -26 9 0 35 36 31 75 -9z m885 6 c6
-11 8 -20 6 -20 -3 0 -10 9 -16 20 -6 11 -8 20 -6 20 3 0 10 -9 16 -20z m-810
-10 c5 8 10 9 14 2 4 -6 42 -11 92 -10 47 0 87 -2 90 -5 3 -3 -48 -5 -114 -6
-97 0 -121 3 -126 15 -5 12 -2 12 15 3 16 -8 23 -8 29 1z m295 0 c3 -5 1 -10
-4 -10 -6 0 -11 5 -11 10 0 6 2 10 4 10 3 0 8 -4 11 -10z m-450 -20 c-3 -5
-47 -8 -98 -8 -79 1 -84 2 -37 8 84 9 141 9 135 0z m1317 -27 c4 -15 -2 -18
-31 -19 -36 -1 -36 -1 -8 9 15 6 27 14 27 19 0 14 8 8 12 -9z m-1429 0 c-7 -2
-21 -2 -30 0 -10 3 -4 5 12 5 17 0 24 -2 18 -5z m60 0 c-7 -2 -19 -2 -25 0 -7
3 -2 5 12 5 14 0 19 -2 13 -5z m312 -3 c-145 -5 -173 -16 -50 -19 38 -1 71 -4
74 -6 2 -3 -47 -4 -110 -4 -63 1 -104 4 -91 6 45 9 20 21 -45 22 -36 0 -68 3
-71 6 -2 2 94 3 214 3 204 -2 209 -3 79 -8z m783 -25 c-3 -3 -9 2 -12 12 -6
14 -5 15 5 6 7 -7 10 -15 7 -18z m-1048 4 c14 -1 -15 -5 -65 -8 l-90 -6 -8
-139 c-6 -109 -5 -141 5 -148 9 -5 8 -8 -5 -8 -17 0 -18 10 -16 158 l3 157 76
-1 c41 -1 86 -3 100 -5z m729 -111 c2 -62 4 -132 6 -155 1 -24 -2 -43 -6 -43
-5 0 -9 26 -9 58 0 31 -3 101 -7 155 -3 59 -2 97 3 97 6 0 11 -50 13 -112z
m111 87 c13 -14 21 -25 18 -25 -2 0 -15 11 -28 25 -13 14 -21 25 -18 25 2 0
15 -11 28 -25z m475 9 c14 -6 14 -8 -2 -27 -18 -20 -17 -20 5 -15 12 4 22 3
22 -2 0 -4 -9 -10 -20 -13 -11 -3 -20 -11 -20 -17 0 -8 9 -10 24 -6 16 4 26 1
30 -10 4 -9 2 -13 -5 -8 -6 4 -15 0 -20 -7 -7 -12 -9 -12 -9 0 0 11 -3 11 -17
0 -15 -12 -16 -12 -10 3 3 10 2 20 -4 24 -6 4 -6 11 2 20 9 11 8 14 -2 14 -10
1 -9 4 4 14 20 16 23 27 3 20 -8 -3 -17 -1 -21 5 -7 12 14 14 40 5z m-2225
-84 c-7 -39 -14 -69 -17 -66 -3 2 0 37 7 76 7 39 14 69 17 66 3 -2 0 -37 -7
-76z m859 71 c9 -6 10 -11 2 -15 -6 -4 -11 -17 -11 -29 0 -35 -71 -162 -81
-146 -10 16 -12 183 -2 192 9 10 75 8 92 -2z m872 -18 c13 -16 12 -17 -3 -4
-10 7 -18 15 -18 17 0 8 8 3 21 -13z m382 -4 c6 -24 -5 -24 -26 -1 -15 16 -15
18 2 19 11 1 21 -7 24 -18z m-1143 6 c0 -2 -18 -14 -41 -26 -23 -11 -38 -15
-34 -9 4 7 21 18 39 26 36 16 36 15 36 9z m455 -5 c17 -8 16 -8 -7 -7 -16 1
-28 5 -28 9 0 10 9 9 35 -2z m-786 -24 c8 -10 8 -16 -2 -24 -17 -14 -42 2 -34
22 8 20 21 20 36 2z m378 -2 c-3 -3 -12 -4 -19 -1 -8 3 -5 6 6 6 11 1 17 -2
13 -5z m410 -5 c15 -6 39 -20 52 -32 29 -27 76 -127 84 -182 5 -31 2 -26 -16
25 -48 134 -74 166 -157 191 -15 4 -18 8 -8 8 9 1 29 -4 45 -10z m115 -53 c29
-47 71 -156 63 -164 -5 -6 -35 60 -35 79 0 18 -41 91 -70 123 -21 24 -22 26
-4 16 11 -7 32 -31 46 -54z m-615 29 c-25 -17 -49 -48 -72 -93 -19 -37 -34
-61 -35 -54 -1 43 97 172 133 172 6 0 -5 -11 -26 -25z m1188 -4 c-6 -5 -25 10
-25 20 0 5 6 4 14 -3 8 -7 12 -15 11 -17z m-1959 10 c-3 -5 -15 -7 -26 -4 -28
7 -25 13 6 13 14 0 23 -4 20 -9z m679 -82 c-37 -69 -49 -66 -14 4 23 46 40 69
45 64 2 -2 -12 -32 -31 -68z m543 -421 c2 19 8 22 40 22 21 0 41 3 45 6 3 3
26 7 51 8 25 1 42 -1 38 -4 -62 -50 -83 -60 -131 -60 -28 0 -51 -4 -51 -10 0
-5 22 -10 48 -10 41 0 57 6 102 40 58 43 67 45 120 26 l35 -13 -70 -51 -70
-52 -83 0 -83 0 2 -45 3 -45 46 0 c25 0 52 -6 59 -12 10 -11 11 -10 6 5 -7 16
3 17 114 17 67 0 121 -3 121 -8 0 -17 -86 -103 -107 -107 -13 -2 -33 -11 -45
-19 -12 -9 -33 -16 -45 -16 -13 0 -23 -5 -23 -12 0 -9 -3 -9 -11 -1 -16 16 -7
59 12 55 9 -1 20 5 23 14 4 9 13 14 21 10 8 -3 15 -1 15 4 0 13 -37 13 -45 0
-13 -20 -36 -9 -41 20 -6 27 -10 29 -58 32 l-51 3 0 345 c-1 341 -1 342 5 90
3 -140 7 -245 8 -232z m513 455 c13 -16 12 -17 -3 -4 -17 13 -22 21 -14 21 2
0 10 -8 17 -17z m365 -12 c-17 -18 -17 -19 1 -24 11 -3 7 -5 -11 -6 -29 -1
-29 -1 -10 20 19 22 19 22 -5 14 -16 -5 -21 -4 -17 4 4 6 19 11 33 11 25 0 25
-1 9 -19z m-1312 3 c11 -4 16 -19 16 -50 0 -41 -2 -44 -19 -34 -11 5 -29 10
-41 10 l-20 0 20 40 c22 43 21 43 44 34z m54 -60 c-2 -22 -7 -39 -13 -39 -12
0 -19 60 -10 83 10 28 27 -3 23 -44z m899 14 c-3 -7 -5 -2 -5 12 0 14 2 19 5
13 2 -7 2 -19 0 -25z m-130 -25 c-3 -10 -5 -2 -5 17 0 19 2 27 5 18 2 -10 2
-26 0 -35z m-700 -30 c-2 -16 -4 -5 -4 22 0 28 2 40 4 28 2 -13 2 -35 0 -50z
m75 17 c4 0 8 -4 8 -10 0 -5 -8 -10 -18 -10 -10 0 -23 -5 -30 -12 -9 -9 -12
-3 -12 30 l0 43 22 -21 c12 -11 25 -20 30 -20z m1138 28 c0 -7 -14 -14 -32
-15 -33 -3 -28 11 7 20 11 3 21 5 23 6 1 0 2 -5 2 -11z m-22 -41 c-35 -14 -36
-24 -3 -30 24 -4 24 -4 -2 -3 -34 1 -41 23 -11 35 12 6 28 10 33 9 6 0 -2 -5
-17 -11z m-498 -21 c0 -2 -8 -10 -17 -17 -16 -13 -17 -12 -4 4 13 16 21 21 21
13z m-333 -38 c-3 -7 -5 -2 -5 12 0 14 2 19 5 13 2 -7 2 -19 0 -25z m373 28
c0 -2 -8 -10 -17 -17 -16 -13 -17 -12 -4 4 13 16 21 21 21 13z m187 -28 c-3
-8 -6 -5 -6 6 -1 11 2 17 5 13 3 -3 4 -12 1 -19z m-1290 -10 c-3 -8 -6 -5 -6
6 -1 11 2 17 5 13 3 -3 4 -12 1 -19z m1153 19 c0 -2 -15 -16 -32 -33 l-33 -29
29 33 c28 30 36 37 36 29z m430 -6 c0 -10 -41 -33 -48 -27 -3 3 1 6 9 6 11 1
10 4 -3 14 -15 11 -14 13 12 13 17 0 30 -3 30 -6z m-395 -31 c-3 -5 -20 -19
-38 -30 -32 -22 -32 -22 3 9 37 32 45 37 35 21z m252 -22 c-3 -7 -5 -2 -5 12
0 14 2 19 5 13 2 -7 2 -19 0 -25z m143 4 c0 -4 -12 -9 -27 -10 -22 -1 -24 0
-13 8 18 12 40 13 40 2z m-1800 -52 c12 -16 19 -30 16 -30 -2 0 -14 14 -26 30
-12 17 -19 30 -16 30 2 0 14 -13 26 -30z m1059 -49 l-2 -26 -4 25 c-3 14 -14
36 -26 50 l-22 25 28 -24 c17 -16 27 -34 26 -50z m271 65 c0 -2 -8 -10 -17
-17 -16 -13 -17 -12 -4 4 13 16 21 21 21 13z m-330 -31 c13 -14 21 -25 18 -25
-2 0 -15 11 -28 25 -13 14 -21 25 -18 25 2 0 15 -11 28 -25z m-1163 -32 c-3
-10 -5 -2 -5 17 0 19 2 27 5 18 2 -10 2 -26 0 -35z m1830 33 c-5 -16 -24 -18
-30 -2 -4 10 0 14 14 13 10 -1 18 -6 16 -11z m-2110 -156 c14 -58 34 -122 44
-142 17 -33 24 -38 53 -38 19 0 37 6 40 13 3 6 3 1 0 -11 -5 -22 -4 -23 17
-11 23 12 23 12 6 -15 -18 -27 -10 -33 23 -16 14 7 20 6 24 -6 4 -12 2 -15 -9
-10 -8 3 -15 1 -15 -5 0 -6 -4 -7 -10 -4 -5 3 -10 2 -10 -3 0 -17 13 -21 32
-11 28 15 35 3 13 -21 -20 -22 -14 -26 17 -9 20 11 20 10 4 -12 -22 -32 -21
-36 17 -32 l32 3 -27 -13 c-19 -9 -24 -17 -19 -26 7 -11 13 -9 30 8 22 22 19
51 -6 51 -8 0 -11 4 -8 10 3 5 -7 32 -23 59 -23 42 -31 48 -42 38 -12 -10 -12
-9 -1 5 7 9 19 14 27 11 8 -3 25 2 38 10 14 9 27 12 32 7 5 -5 -10 49 -34 121
-33 101 -40 134 -31 147 10 16 10 16 5 0 -6 -20 38 -166 66 -222 15 -29 22
-36 29 -25 7 11 12 12 28 2 19 -12 19 -12 1 30 -31 71 -32 95 -2 32 16 -33 39
-69 52 -80 l23 -20 -22 42 c-31 61 -26 65 10 7 17 -27 36 -52 41 -55 5 -3 9
-9 9 -12 -1 -12 141 -157 190 -194 52 -39 57 -66 6 -34 -17 11 -61 45 -97 76
-47 41 -42 35 18 -22 87 -82 102 -120 23 -56 -45 36 -45 36 -16 5 l29 -33 -49
6 c-40 5 -56 14 -88 46 -21 21 -41 39 -45 39 -3 0 12 -18 33 -40 24 -24 35
-43 30 -49 -19 -16 -103 -33 -174 -34 l-72 0 -41 54 c-22 30 -45 64 -51 77 -6
12 -14 22 -19 22 -5 0 6 -21 23 -47 48 -70 91 -122 98 -120 4 1 25 -16 46 -38
22 -23 65 -63 95 -90 30 -28 51 -47 46 -43 -16 12 -28 9 -20 -4 4 -7 4 -10 0
-6 -4 3 -6 9 -4 11 4 7 -43 57 -55 57 -5 0 -3 -8 4 -18 8 -9 -11 6 -41 33 -84
77 -162 179 -230 301 -41 74 -47 90 -30 79 6 -3 10 -1 10 4 0 6 -6 11 -14 11
-26 0 -96 210 -96 290 0 21 -4 42 -10 45 -6 4 -5 11 3 20 10 11 13 8 15 -14 1
-14 14 -73 29 -131z m641 125 c-3 -3 -9 2 -12 12 -6 14 -5 15 5 6 7 -7 10 -15
7 -18z m-321 -27 c-3 -7 -5 -2 -5 12 0 14 2 19 5 13 2 -7 2 -19 0 -25z m1740
10 c-4 -12 -3 -27 2 -32 4 -6 4 -25 -1 -43 -7 -28 -12 -32 -38 -30 -21 1 -28
6 -25 17 2 8 9 34 15 58 6 23 15 40 20 37 5 -3 11 -1 15 5 11 18 18 11 12 -12z
m242 -34 c4 -3 -26 -134 -32 -140 -1 -1 -40 11 -87 27 -47 16 -93 27 -102 25
-21 -5 -21 -3 -7 47 5 20 14 37 19 37 4 0 11 13 15 29 l6 29 92 -25 c51 -14
94 -27 96 -29z m-1935 11 c5 -22 4 -26 -4 -15 -5 8 -10 24 -10 34 0 26 6 18
14 -19z m1596 -8 c0 -25 -11 -47 -21 -41 -5 3 -9 23 -9 45 0 36 2 39 15 25 8
-8 15 -21 15 -29z m126 17 c-4 -9 -9 -15 -11 -12 -3 3 -3 13 1 22 4 9 9 15 11
12 3 -3 3 -13 -1 -22z m-86 2 c0 -33 -13 -75 -25 -80 -10 -4 -12 4 -8 32 2 20
6 43 9 50 5 16 24 15 24 -2z m-1713 -28 c-3 -7 -5 -2 -5 12 0 14 2 19 5 13 2
-7 2 -19 0 -25z m1583 18 c0 -2 -24 -23 -52 -46 l-53 -42 50 46 c50 46 55 49
55 42z m-1532 -66 c0 -9 -3 -7 -8 5 -5 11 -8 29 -8 40 0 16 2 15 8 -5 4 -14 8
-32 8 -40z m-41 8 c-3 -8 -6 -5 -6 6 -1 11 2 17 5 13 3 -3 4 -12 1 -19z m81
-3 c-3 -3 -9 2 -12 12 -6 14 -5 15 5 6 7 -7 10 -15 7 -18z m1333 8 c13 -16 12
-17 -3 -4 -17 13 -22 21 -14 21 2 0 10 -8 17 -17z m-1404 -45 c-3 -8 -6 -5 -6
6 -1 11 2 17 5 13 3 -3 4 -12 1 -19z m81 -9 c-3 -8 -7 -3 -11 10 -4 17 -3 21
5 13 5 -5 8 -16 6 -23z m132 -4 c0 -5 -5 -3 -10 5 -5 8 -10 20 -10 25 0 6 5 3
10 -5 5 -8 10 -19 10 -25z m-173 3 c-3 -8 -6 -5 -6 6 -1 11 2 17 5 13 3 -3 4
-12 1 -19z m133 -13 c0 -5 -5 -3 -10 5 -5 8 -10 20 -10 25 0 6 5 3 10 -5 5 -8
10 -19 10 -25z m558 -85 c0 -30 -3 -64 -8 -75 -5 -13 -8 18 -8 85 0 69 3 95 8
75 4 -16 8 -55 8 -85z m130 78 c40 1 69 7 74 14 4 7 8 -53 8 -134 l0 -147 58
-4 c31 -2 -40 -3 -158 -3 -118 0 -189 1 -157 3 l57 4 0 150 0 149 26 -17 c19
-12 45 -16 92 -15z m194 -200 c53 -3 67 -18 47 -49 -6 -10 -9 -8 -9 8 0 24
-38 41 -60 28 -5 -3 -19 -3 -30 0 -18 6 -20 15 -20 88 0 142 15 179 18 45 l3
-117 51 -3z m-402 210 c0 -7 -19 -26 -43 -43 -117 -81 -228 -167 -224 -171 4
-4 171 114 255 179 9 7 12 -7 12 -67 0 -50 -4 -75 -10 -71 -6 4 -8 11 -5 16
10 15 -22 10 -35 -6 -7 -8 -23 -15 -36 -15 -15 0 -24 -6 -24 -16 0 -14 -3 -14
-15 -4 -18 15 -45 -2 -45 -30 0 -28 27 -45 45 -30 13 11 15 7 15 -29 l0 -41
-27 17 c-16 9 -48 33 -73 52 -26 20 -37 25 -25 12 11 -12 42 -39 70 -59 27
-20 51 -40 53 -44 2 -5 14 -8 27 -8 13 0 27 -5 31 -11 4 -8 -1 -9 -17 -4 -13
5 -45 9 -71 10 -53 2 -110 32 -178 93 -29 26 -41 44 -35 50 40 37 217 162 230
162 9 0 31 11 49 25 18 14 38 25 44 25 7 0 12 5 12 10 0 6 5 10 10 10 6 0 10
-6 10 -12z m751 -24 c30 -5 39 -10 34 -22 -7 -19 12 -42 37 -42 24 0 34 26 17
47 -8 10 1 7 21 -8 19 -13 37 -25 38 -26 8 -4 -53 -105 -86 -144 -19 -22 -32
-42 -29 -45 7 -8 61 61 98 126 47 82 70 79 27 -2 -41 -78 -115 -159 -127 -139
-6 8 -14 10 -22 5 -7 -4 -31 -7 -52 -5 -21 1 -45 -3 -54 -11 -9 -7 7 16 35 51
29 36 52 69 52 73 0 4 -81 8 -180 8 l-180 0 0 30 0 30 81 0 81 0 76 55 c62 45
78 52 85 40 4 -8 26 -18 48 -21z m-1341 -19 c0 -5 -5 -3 -10 5 -5 8 -10 20
-10 25 0 6 5 3 10 -5 5 -8 10 -19 10 -25z m56 -42 c-5 -5 -36 62 -36 76 1 3
10 -11 21 -32 11 -22 18 -41 15 -44z m851 -21 c4 -166 -1 -152 54 -152 53 0
65 -10 49 -40 -10 -19 -20 -20 -241 -20 l-230 0 3 28 c3 25 7 27 56 30 54 3
56 5 53 57 -1 19 0 19 7 1 5 -11 7 -30 4 -43 -4 -20 -10 -23 -51 -23 -52 0
-62 -5 -54 -26 4 -11 43 -14 203 -14 190 0 258 8 245 30 -3 5 -30 10 -59 10
l-53 0 -2 120 c-2 102 2 140 12 140 1 0 3 -44 4 -98z m511 45 c2 -10 -3 -17
-12 -17 -18 0 -29 16 -21 31 9 14 29 6 33 -14z m-988 9 c0 -2 -50 -41 -110
-86 -128 -96 -128 -81 -4 -180 l71 -57 -28 -10 c-26 -10 -35 -7 -87 31 -57 42
-172 161 -172 178 0 5 -5 6 -12 2 -7 -4 -8 -3 -4 5 4 6 0 23 -9 37 -9 14 -15
28 -12 30 2 2 25 -27 51 -66 46 -70 75 -99 37 -37 -11 19 -17 38 -13 42 4 5 2
5 -4 2 -23 -13 -20 18 3 43 20 20 23 21 17 5 -7 -19 -7 -19 13 -2 11 9 28 17
39 17 11 0 28 6 39 13 12 8 43 13 76 12 31 -1 67 4 80 11 27 15 29 16 29 10z
m1130 -44 c0 -14 -71 -126 -98 -154 -44 -47 -43 -31 2 35 24 34 51 77 60 95
15 29 36 43 36 24z m235 -12 c3 -5 -4 -6 -15 -3 -11 3 -22 9 -25 13 -3 5 4 6
15 3 11 -3 22 -9 25 -13z m-200 0 c4 -6 11 -8 16 -5 10 7 12 -6 3 -29 -3 -9
-12 -16 -19 -16 -7 0 -23 -20 -36 -45 -13 -25 -31 -45 -39 -45 -9 0 -21 -5
-28 -12 -23 -23 -12 5 23 57 18 29 39 64 46 78 13 28 24 34 34 17z m105 -64
c0 -18 -33 -46 -53 -46 -12 0 -32 -10 -45 -22 l-24 -23 22 38 c12 21 20 40 17
44 -4 3 1 19 9 34 l15 29 29 -22 c17 -12 30 -26 30 -32z m80 22 c0 -5 -7 -3
-15 6 -8 8 -15 18 -15 22 0 3 7 1 15 -6 8 -7 15 -17 15 -22z m-44 -5 c-3 -4 4
-13 16 -20 l23 -14 -25 7 c-14 3 -27 8 -29 10 -4 4 9 24 16 24 4 0 3 -3 -1 -7z
m-1096 -53 l0 -30 -60 0 c-33 0 -60 4 -60 10 0 6 25 10 55 10 48 0 55 2 55 20
0 11 2 20 5 20 3 0 5 -13 5 -30z m955 1 c-22 -43 -35 -47 -17 -6 9 19 20 35
24 35 5 0 2 -13 -7 -29z m141 -2 c19 -22 19 -22 -4 -10 -12 7 -27 9 -32 6 -6
-3 -7 1 -4 9 8 21 17 20 40 -5z m-1271 -20 c0 -7 -8 -15 -17 -17 -18 -3 -25
18 -11 32 10 10 28 1 28 -15z m1249 -14 c11 -8 15 -15 10 -15 -6 0 -19 7 -30
15 -10 8 -14 14 -9 14 6 0 19 -6 29 -14z m-18 -36 c19 -22 19 -22 -3 -10 -24
12 -39 31 -25 31 5 0 17 -10 28 -21z m-20 -31 l19 -21 -27 18 c-29 18 -34 25
-20 25 5 0 17 -10 28 -22z m-619 -20 c-3 -7 -5 -2 -5 12 0 14 2 19 5 13 2 -7
2 -19 0 -25z m604 -5 c13 -15 12 -15 -11 -3 -34 17 -36 20 -18 20 9 0 22 -7
29 -17z m-26 -23 c18 -20 18 -21 0 -14 -13 5 -16 4 -10 -5 6 -10 3 -11 -14 -2
-24 13 -28 23 -6 15 11 -5 13 -2 9 10 -8 22 -1 20 21 -4z m-1007 -7 c-10 -2
-28 -2 -40 0 -13 2 -5 4 17 4 22 1 32 -1 23 -4z m80 0 c-10 -2 -26 -2 -35 0
-10 3 -2 5 17 5 19 0 27 -2 18 -5z m95 0 c-13 -2 -35 -2 -50 0 -16 2 -5 4 22
4 28 0 40 -2 28 -4z m70 0 c-7 -2 -21 -2 -30 0 -10 3 -4 5 12 5 17 0 24 -2 18
-5z m836 -35 c-43 -62 -154 -171 -234 -230 -108 -82 -248 -151 -370 -184 -43
-12 -51 -11 -58 1 -5 10 -25 15 -63 15 -55 0 -76 10 -82 40 -6 26 -19 32 -35
16 -10 -10 -18 -12 -22 -6 -8 13 -55 13 -55 0 0 -5 5 -10 10 -10 6 0 10 -11
10 -25 0 -14 5 -25 11 -25 7 0 9 10 5 25 -4 14 -4 25 -1 25 10 0 31 -59 37
-107 1 -7 6 -9 12 -6 20 13 86 14 86 3 0 -6 -4 -9 -9 -6 -5 3 -14 -1 -21 -9
-14 -17 -70 -17 -70 0 0 5 -7 1 -15 -9 -8 -11 -15 -15 -15 -9 0 7 5 15 10 18
21 13 9 21 -25 17 -55 -7 -254 16 -341 39 -132 34 -358 138 -341 156 10 9 107
11 107 1 0 -5 8 -8 17 -6 10 2 17 -3 16 -9 -5 -21 12 -15 42 17 19 20 39 30
58 30 15 0 37 5 49 11 22 12 108 -4 119 -22 8 -14 82 -30 89 -20 3 4 27 5 54
3 29 -3 43 -7 36 -12 -7 -4 -10 -15 -7 -24 5 -12 19 -15 57 -15 27 1 56 -4 64
-10 18 -15 46 -4 46 19 0 23 -15 29 -60 22 -24 -3 -32 -1 -25 6 12 12 115 20
131 10 12 -8 94 11 94 22 0 4 19 13 43 19 23 7 81 33 130 57 48 24 91 43 95
41 11 -3 82 43 82 54 0 5 -6 9 -12 10 -7 0 -2 5 12 11 14 6 31 10 39 9 7 -1
47 5 88 14 54 12 78 14 86 6 16 -16 25 -13 23 7 0 9 6 18 14 18 32 3 81 17 86
25 3 5 10 9 15 9 6 0 0 -15 -12 -32z m-1534 -48 c10 -11 16 -20 13 -20 -3 0
-13 9 -23 20 -10 11 -16 20 -13 20 3 0 13 -9 23 -20z m1137 -17 c-23 -15 -42
-33 -42 -40 0 -25 -254 -132 -266 -112 -3 5 -15 7 -27 4 -13 -4 -33 -2 -46 3
-20 7 -10 12 62 31 47 12 118 38 157 57 40 19 79 34 88 34 9 0 35 12 57 25 55
34 69 32 17 -2z m-1077 -13 c-3 -5 -12 -10 -18 -10 -7 0 -6 4 3 10 19 12 23
12 15 0z m40 -30 c0 -5 9 -16 20 -25 l20 -16 -20 10 c-34 16 -61 40 -47 41 8
0 10 5 6 13 -5 9 -3 9 7 -1 8 -7 14 -17 14 -22z m1060 20 c-3 -5 -16 -15 -28
-21 -22 -12 -22 -12 -3 10 19 21 43 30 31 11z m-505 -40 c6 -11 8 -20 6 -20
-3 0 -10 9 -16 20 -6 11 -8 20 -6 20 3 0 10 -9 16 -20z m177 -26 c-3 -3 -12
-4 -19 -1 -8 3 -5 6 6 6 11 1 17 -2 13 -5z m-882 -34 c3 -6 -1 -7 -9 -4 -18 7
-21 14 -7 14 6 0 13 -4 16 -10z m550 -29 c11 -10 27 -21 35 -24 8 -3 -8 -6
-37 -6 -28 -1 -53 3 -55 9 -4 14 -66 31 -73 20 -6 -10 -64 7 -80 23 -7 7 -7 8
0 4 6 -3 26 -2 45 2 48 10 140 -6 165 -28z m-435 9 c0 -5 -2 -10 -4 -10 -3 0
-8 5 -11 10 -3 6 -1 10 4 10 6 0 11 -4 11 -10z m654 -14 l27 -13 -23 -7 c-35
-9 -118 -6 -93 3 19 8 19 8 0 19 -17 10 -14 11 21 12 23 0 54 -6 68 -14z m95
-22 c10 -9 -35 -3 -49 6 -11 8 -7 9 15 4 17 -4 32 -8 34 -10z m-384 -4 c3 -5
-1 -10 -9 -10 -8 0 -18 5 -21 10 -3 6 1 10 9 10 8 0 18 -4 21 -10z m970 -10
c3 -6 -1 -7 -9 -4 -18 7 -21 14 -7 14 6 0 13 -4 16 -10z m-685 -110 c0 -11 -4
-20 -9 -20 -5 0 -7 9 -4 20 3 11 7 20 9 20 2 0 4 -9 4 -20z m-590 -100 c8 -5
11 -10 5 -10 -5 0 -17 5 -25 10 -8 5 -10 10 -5 10 6 0 17 -5 25 -10z m70 -25
c19 -7 28 -14 20 -14 -8 0 -28 6 -45 14 -39 17 -21 18 25 0z m217 -51 c-3 -3
-12 -4 -19 -1 -8 3 -5 6 6 6 11 1 17 -2 13 -5z"/>
<path d="M1560 2311 c0 -6 5 -13 10 -16 6 -3 10 1 10 9 0 9 -4 16 -10 16 -5 0
-10 -4 -10 -9z"/>
<path d="M1625 2300 c3 -5 14 -10 23 -10 15 0 15 2 2 10 -20 13 -33 13 -25 0z"/>
<path d="M1580 2270 c0 -5 5 -10 10 -10 6 0 10 5 10 10 0 6 -4 10 -10 10 -5 0
-10 -4 -10 -10z"/>
<path d="M1726 2261 c-4 -7 -5 -15 -2 -18 9 -9 19 4 14 18 -4 11 -6 11 -12 0z"/>
<path d="M1650 2246 c0 -2 8 -10 18 -17 15 -13 16 -12 3 4 -13 16 -21 21 -21
13z"/>
<path d="M1948 2189 c5 -47 42 -83 53 -52 4 11 0 26 -10 37 -13 16 -13 18 -1
11 13 -8 13 -7 1 9 -8 9 -22 21 -30 26 -14 7 -16 2 -13 -31z"/>
<path d="M1730 2209 c0 -5 5 -7 10 -4 6 3 10 8 10 11 0 2 -4 4 -10 4 -5 0 -10
-5 -10 -11z"/>
<path d="M1685 2130 c3 -5 11 -10 16 -10 6 0 7 5 4 10 -3 6 -11 10 -16 10 -6
0 -7 -4 -4 -10z"/>
<path d="M1950 2133 c0 -13 29 -38 35 -31 3 3 -4 13 -15 23 -11 10 -20 13 -20
8z"/>
<path d="M1939 2083 c-13 -16 -12 -17 4 -4 16 13 21 21 13 21 -2 0 -10 -8 -17
-17z"/>
<path d="M1996 2075 c-3 -9 -11 -13 -17 -9 -8 4 -9 3 -5 -4 4 -7 11 -12 16
-12 9 0 23 31 16 37 -2 2 -6 -3 -10 -12z"/>
<path d="M2019 2053 c-13 -16 -12 -17 4 -4 9 7 17 15 17 17 0 8 -8 3 -21 -13z"/>
<path d="M2015 2000 c21 -21 42 -37 47 -34 10 7 11 15 0 12 -5 -2 -23 12 -41
30 -18 17 -35 32 -39 32 -3 0 11 -18 33 -40z"/>
<path d="M865 2253 c8 -18 20 -33 26 -33 6 0 6 4 -1 13 -6 6 -17 21 -26 32
-13 17 -12 15 1 -12z"/>
<path d="M820 2251 c0 -5 6 -12 13 -14 10 -4 10 -6 0 -6 -7 -1 -13 -11 -13
-23 0 -21 1 -21 13 -3 9 12 19 15 28 10 8 -5 3 4 -10 18 -27 29 -31 32 -31 18z"/>
<path d="M770 2240 c-9 -6 -11 -10 -3 -10 7 0 20 -12 28 -27 9 -16 13 -19 9
-8 -4 11 -7 28 -8 38 0 19 -5 21 -26 7z"/>
<path d="M437 1938 c20 -23 21 -48 1 -48 -6 0 -8 7 -5 14 4 11 1 13 -10 9 -13
-5 -15 -2 -10 12 6 15 5 16 -8 5 -13 -11 -12 -15 11 -32 25 -20 25 -20 43 -1
18 19 18 20 -4 41 -30 29 -44 28 -18 0z"/>
<path d="M249 1587 c27 -29 52 -38 30 -10 -10 11 -10 14 -1 9 6 -4 12 -2 12 3
0 6 -6 11 -14 11 -8 0 -23 3 -33 7 -14 5 -13 1 6 -20z"/>
<path d="M208 1423 c12 -2 20 -8 17 -13 -3 -4 4 -6 15 -3 30 8 13 23 -23 22
-24 -1 -26 -3 -9 -6z"/>
<path d="M412 1365 c0 -16 2 -22 5 -12 2 9 2 23 0 30 -3 6 -5 -1 -5 -18z"/>
<path d="M622 1365 c0 -16 2 -22 5 -12 2 9 2 23 0 30 -3 6 -5 -1 -5 -18z"/>
<path d="M531 1314 c0 -11 3 -14 6 -6 3 7 2 16 -1 19 -3 4 -6 -2 -5 -13z"/>
<path d="M1683 1623 c9 -2 25 -2 35 0 9 3 1 5 -18 5 -19 0 -27 -2 -17 -5z"/>
<path d="M1760 1568 c0 -26 4 -38 8 -30 8 12 4 72 -4 72 -2 0 -4 -19 -4 -42z"/>
<path d="M1581 764 c0 -11 3 -14 6 -6 3 7 2 16 -1 19 -3 4 -6 -2 -5 -13z"/>
<path d="M1646 705 c-22 -17 -17 -29 7 -19 16 6 32 34 19 34 -4 0 -16 -7 -26
-15z"/>
<path d="M441 811 c-12 -8 -10 -16 12 -50 15 -23 32 -41 37 -41 15 0 12 20 -4
26 -8 3 -17 12 -20 20 -3 8 -2 12 3 9 13 -8 22 10 15 29 -7 18 -22 20 -43 7z"/>
<path d="M560 806 c0 -2 8 -10 18 -17 15 -13 16 -12 3 4 -13 16 -21 21 -21 13z"/>
<path d="M210 774 c0 -5 7 -18 15 -28 8 -11 15 -16 15 -10 0 5 -7 18 -15 28
-8 11 -15 16 -15 10z"/>
<path d="M495 750 c20 -23 29 -21 19 4 -3 9 -13 16 -22 16 -13 0 -12 -3 3 -20z"/>
<path d="M246 707 c3 -10 9 -15 12 -12 3 3 0 11 -7 18 -10 9 -11 8 -5 -6z"/>
<path d="M655 640 c10 -11 20 -20 23 -20 3 0 -3 9 -13 20 -10 11 -20 20 -23
20 -3 0 3 -9 13 -20z"/>
<path d="M390 504 c0 -5 24 -32 53 -59 l52 -50 -50 55 c-27 30 -51 57 -52 59
-2 2 -3 0 -3 -5z"/>
<path d="M715 860 c-3 -5 -12 -7 -20 -3 -8 3 -15 0 -15 -6 0 -16 36 -13 50 4
8 9 9 15 2 15 -6 0 -13 -4 -17 -10z"/>
<path d="M1910 453 c0 -6 -7 -19 -16 -28 -16 -15 -16 -18 -1 -33 9 -9 20 -12
24 -8 5 5 3 11 -3 13 -7 2 -10 13 -7 24 4 15 8 17 19 8 8 -6 11 -16 7 -22 -4
-7 0 -8 11 -4 10 4 20 7 22 7 2 0 4 5 4 11 0 6 -6 9 -12 7 -7 -3 -20 5 -30 16
-10 12 -17 16 -18 9z"/>
<path d="M1835 402 c-47 -27 -55 -38 -42 -51 8 -8 7 -11 -4 -11 -8 0 -20 5
-27 12 -15 15 -16 3 -2 -23 15 -27 -4 -24 -23 4 -12 16 -16 18 -16 6 -1 -8 3
-19 9 -25 6 -6 6 -15 0 -24 -7 -11 -10 -12 -10 -2 0 7 -7 20 -15 28 -12 12
-18 12 -34 2 -17 -10 -23 -9 -41 14 -17 22 -25 25 -48 18 -16 -4 -37 -13 -48
-20 -20 -12 -19 -14 17 -52 21 -22 43 -37 48 -33 6 3 11 2 11 -4 0 -15 72 -33
85 -20 7 7 6 13 -4 18 -10 7 -10 10 -1 13 10 3 10 9 1 27 -14 25 -5 44 9 21 5
-8 11 -19 13 -24 2 -5 19 -1 39 8 26 12 35 22 31 33 -5 13 -3 14 17 3 24 -13
24 -15 4 34 -3 7 2 16 10 19 9 4 13 1 11 -6 -7 -17 11 -41 24 -33 7 5 6 15 -5
32 -20 29 -1 34 29 7 19 -18 20 -17 6 7 -7 14 -12 28 -11 33 3 9 2 9 -33 -11z
m-190 -112 c3 -5 1 -10 -4 -10 -6 0 -11 5 -11 10 0 6 2 10 4 10 3 0 8 -4 11
-10z"/>
<path d="M832 313 c-12 -13 -20 -29 -16 -34 8 -14 36 -11 31 4 -2 6 0 20 5 30
15 28 5 28 -20 0z"/>
<path d="M1040 265 c-1 -5 -4 -23 -6 -40 l-4 -30 20 25 20 25 0 -22 c0 -13 5
-23 10 -23 6 0 10 6 10 14 0 8 3 23 6 33 5 15 4 15 -5 3 -8 -12 -11 -12 -11
-1 0 7 -6 11 -14 8 -8 -3 -17 -1 -20 6 -2 7 -5 8 -6 2z"/>
<path d="M1110 234 c-13 -33 -13 -47 0 -39 6 3 10 15 10 26 0 29 18 23 22 -8
3 -25 7 -28 38 -28 29 0 34 3 32 19 -2 11 1 15 7 11 13 -7 14 5 2 23 -6 10
-10 7 -15 -12 -3 -14 -11 -26 -17 -26 -7 0 -9 10 -5 26 5 17 3 23 -4 19 -5 -3
-10 -15 -10 -26 0 -30 -17 -22 -23 11 -8 37 -24 39 -37 4z"/>
<path d="M1253 243 c-21 -8 -15 -22 7 -16 18 5 19 3 10 -22 -9 -22 -8 -26 7
-23 17 3 25 30 16 54 -5 14 -18 16 -40 7z"/>
<path d="M1230 201 c0 -6 5 -13 10 -16 6 -3 10 1 10 9 0 9 -4 16 -10 16 -5 0
-10 -4 -10 -9z"/>
<path d="M1500 396 c0 -2 7 -7 16 -10 8 -3 12 -2 9 4 -6 10 -25 14 -25 6z"/>
<path d="M2516 1535 c3 -27 8 -61 11 -74 4 -14 2 -22 -4 -18 -5 3 -10 0 -10
-7 0 -7 6 -13 14 -13 16 0 16 14 -2 97 -13 58 -14 60 -9 15z"/>
<path d="M2533 1251 c-2 -80 -5 -157 -8 -171 -5 -23 -4 -23 6 -6 15 24 26 311
13 319 -5 2 -10 -60 -11 -142z"/>
<path d="M2478 916 c-12 -11 -18 -12 -28 -3 -10 10 -12 7 -7 -10 2 -12 2 -23
-2 -25 -3 -2 -34 -58 -68 -124 l-61 -122 31 3 c28 2 36 10 70 73 38 70 92 211
84 219 -3 2 -11 -3 -19 -11z"/>
<path d="M2234 458 l-19 -23 23 19 c21 18 27 26 19 26 -2 0 -12 -10 -23 -22z"/>
<path d="M358 199 c3 -180 4 -189 22 -189 19 0 20 8 20 168 0 162 -1 169 -22
190 l-23 21 3 -190z"/>
</g>
</svg>
